<svg width="981" height="222" viewBox="0 0 981 222" fill="none" xmlns="http://www.w3.org/2000/svg">
<path d="M145.625 177.151C134.43 190.57 132.055 208.94 132.055 208.94C132.055 208.94 113.119 211.237 99.2453 222H46.8797C33.0063 211.182 14.0696 208.94 14.0696 208.94C14.0696 208.94 11.6842 190.613 0.5 177.194V126.545C11.6842 113.137 14.0696 94.8097 14.0696 94.8097C14.0696 94.8097 33.0063 92.5134 46.8797 81.75H99.2453C113.119 92.5678 132.055 94.8097 132.055 94.8097C132.055 94.8097 134.43 113.137 145.625 126.545V150.172V177.151ZM107.155 204.99L126.835 203.836L127.96 184.802L140.64 154.917L109.766 167.149L90.0864 168.292L88.8825 187.327L76.2355 217.222L107.155 204.99ZM84.8656 163.231C84.8656 163.231 101.743 161.175 115.335 151.815C101.833 142.467 84.8656 140.41 84.8656 140.41C84.8656 140.41 82.739 124.085 73.0625 110.927C63.386 124.052 61.2594 140.377 61.2594 140.377C61.2594 140.377 44.3818 142.434 30.7897 151.782C44.2918 161.142 61.2594 163.199 61.2594 163.199C61.2594 163.199 63.386 179.523 73.0625 192.681C82.739 179.556 84.8656 163.231 84.8656 163.231ZM18.1089 184.802L19.2341 203.836L38.9135 204.99L69.8107 217.222L57.1638 187.327L55.9824 168.292L36.3031 167.149L5.40575 154.917L18.1089 184.802ZM38.9697 98.6731L19.2904 99.7614L18.1653 118.796L5.51824 148.692L36.4156 136.459L56.0949 135.306L57.2763 116.271L69.9233 86.3862L38.9697 98.6731ZM128.016 118.85L126.891 99.8159L107.212 98.7276L76.303 86.495L88.8825 116.325L90.0639 135.36L109.743 136.514L140.64 148.746L128.016 118.85Z" fill="url(#paint0_linear_8197_2832)"/>
<path d="M145.625 36.9009C134.43 50.3197 132.055 68.6903 132.055 68.6903C132.055 68.6903 113.119 70.9866 99.2453 81.75H46.8797C33.0063 70.9322 14.0696 68.6903 14.0696 68.6903C14.0696 68.6903 11.6842 50.3633 0.5 36.9444V-13.7053C11.6842 -27.1133 14.0696 -45.4403 14.0696 -45.4403C14.0696 -45.4403 33.0063 -47.7367 46.8797 -58.5H99.2453C113.119 -47.6823 132.055 -45.4403 132.055 -45.4403C132.055 -45.4403 134.43 -27.1133 145.625 -13.7053V9.9218V36.9009ZM107.155 64.7398L126.835 63.5862L127.96 44.5517L140.64 14.6668L109.766 26.8994L90.0864 28.0421L88.8825 47.0766L76.2355 76.9723L107.155 64.7398ZM84.8656 22.9815C84.8656 22.9815 101.743 20.9246 115.335 11.5651C101.833 2.21658 84.8656 0.159683 84.8656 0.159683C84.8656 0.159683 82.739 -16.1649 73.0625 -29.3225C63.386 -16.1976 61.2594 0.127029 61.2594 0.127029C61.2594 0.127029 44.3818 2.18391 30.7897 11.5325C44.2918 20.8919 61.2594 22.9488 61.2594 22.9488C61.2594 22.9488 63.386 39.2734 73.0625 52.431C82.739 39.306 84.8656 22.9815 84.8656 22.9815ZM18.1089 44.5517L19.2341 63.5862L38.9135 64.7398L69.8107 76.9723L57.1638 47.0766L55.9824 28.0421L36.3031 26.8994L5.40575 14.6668L18.1089 44.5517ZM38.9697 -41.5768L19.2904 -40.4886L18.1653 -21.4541L5.51824 8.4417L36.4156 -3.79088L56.0949 -4.94447L57.2763 -23.9789L69.9233 -53.8638L38.9697 -41.5768ZM128.016 -21.3997L126.891 -40.4341L107.212 -41.5224L76.303 -53.755L88.8825 -23.9245L90.0639 -4.89006L109.743 -3.73645L140.64 8.49611L128.016 -21.3997Z" fill="url(#paint1_linear_8197_2832)"/>
<path d="M145.625 -103.349C134.43 -89.9303 132.055 -71.5597 132.055 -71.5597C132.055 -71.5597 113.119 -69.2633 99.2453 -58.5H46.8797C33.0063 -69.3177 14.0696 -71.5597 14.0696 -71.5597C14.0696 -71.5597 11.6842 -89.8867 0.5 -103.306V-153.955C11.6842 -167.363 14.0696 -185.69 14.0696 -185.69C14.0696 -185.69 33.0063 -187.987 46.8797 -198.75H99.2453C113.119 -187.932 132.055 -185.69 132.055 -185.69C132.055 -185.69 134.43 -167.363 145.625 -153.955V-130.328V-103.349ZM107.155 -75.5102L126.835 -76.6638L127.96 -95.6983L140.64 -125.583L109.766 -113.351L90.0864 -112.208L88.8825 -93.1734L76.2355 -63.2777L107.155 -75.5102ZM84.8656 -117.269C84.8656 -117.269 101.743 -119.325 115.335 -128.685C101.833 -138.033 84.8656 -140.09 84.8656 -140.09C84.8656 -140.09 82.739 -156.415 73.0625 -169.573C63.386 -156.448 61.2594 -140.123 61.2594 -140.123C61.2594 -140.123 44.3818 -138.066 30.7897 -128.718C44.2918 -119.358 61.2594 -117.301 61.2594 -117.301C61.2594 -117.301 63.386 -100.977 73.0625 -87.819C82.739 -100.944 84.8656 -117.269 84.8656 -117.269ZM18.1089 -95.6983L19.2341 -76.6638L38.9135 -75.5102L69.8107 -63.2777L57.1638 -93.1734L55.9824 -112.208L36.3031 -113.351L5.40575 -125.583L18.1089 -95.6983ZM38.9697 -181.827L19.2904 -180.739L18.1653 -161.704L5.51824 -131.808L36.4156 -144.041L56.0949 -145.194L57.2763 -164.229L69.9233 -194.114L38.9697 -181.827ZM128.016 -161.65L126.891 -180.684L107.212 -181.772L76.303 -194.005L88.8825 -164.175L90.0639 -145.14L109.743 -143.986L140.64 -131.754L128.016 -161.65Z" fill="url(#paint2_linear_8197_2832)"/>
<path d="M145.625 -243.599C134.43 -230.18 132.055 -211.81 132.055 -211.81C132.055 -211.81 113.119 -209.513 99.2453 -198.75H46.8797C33.0063 -209.568 14.0696 -211.81 14.0696 -211.81C14.0696 -211.81 11.6842 -230.137 0.5 -243.556V-294.205C11.6842 -307.613 14.0696 -325.94 14.0696 -325.94C14.0696 -325.94 33.0063 -328.237 46.8797 -339H99.2453C113.119 -328.182 132.055 -325.94 132.055 -325.94C132.055 -325.94 134.43 -307.613 145.625 -294.205V-270.578V-243.599ZM107.155 -215.76L126.835 -216.914L127.96 -235.948L140.64 -265.833L109.766 -253.601L90.0864 -252.458L88.8825 -233.423L76.2355 -203.528L107.155 -215.76ZM84.8656 -257.519C84.8656 -257.519 101.743 -259.575 115.335 -268.935C101.833 -278.283 84.8656 -280.34 84.8656 -280.34C84.8656 -280.34 82.739 -296.665 73.0625 -309.823C63.386 -296.698 61.2594 -280.373 61.2594 -280.373C61.2594 -280.373 44.3818 -278.316 30.7897 -268.968C44.2918 -259.608 61.2594 -257.551 61.2594 -257.551C61.2594 -257.551 63.386 -241.227 73.0625 -228.069C82.739 -241.194 84.8656 -257.519 84.8656 -257.519ZM18.1089 -235.948L19.2341 -216.914L38.9135 -215.76L69.8107 -203.528L57.1638 -233.423L55.9824 -252.458L36.3031 -253.601L5.40575 -265.833L18.1089 -235.948ZM38.9697 -322.077L19.2904 -320.989L18.1653 -301.954L5.51824 -272.058L36.4156 -284.291L56.0949 -285.444L57.2763 -304.479L69.9233 -334.364L38.9697 -322.077ZM128.016 -301.9L126.891 -320.934L107.212 -322.022L76.303 -334.255L88.8825 -304.425L90.0639 -285.39L109.743 -284.236L140.64 -272.004L128.016 -301.9Z" fill="url(#paint3_linear_8197_2832)"/>
<path d="M290.75 177.151C279.555 190.57 277.18 208.94 277.18 208.94C277.18 208.94 258.244 211.237 244.37 222H192.005C178.131 211.182 159.195 208.94 159.195 208.94C159.195 208.94 156.809 190.613 145.625 177.194V150.172V126.545C156.809 113.137 159.195 94.8097 159.195 94.8097C159.195 94.8097 178.131 92.5134 192.005 81.75H244.37C258.244 92.5678 277.18 94.8097 277.18 94.8097C277.18 94.8097 279.555 113.137 290.75 126.545V150.172V177.151ZM252.28 204.99L271.96 203.836L273.085 184.802L285.766 154.917L254.891 167.149L235.211 168.292L234.007 187.327L221.361 217.222L252.28 204.99ZM229.991 163.231C229.991 163.231 246.868 161.175 260.46 151.815C246.958 142.467 229.991 140.41 229.991 140.41C229.991 140.41 227.864 124.085 218.188 110.927C208.511 124.052 206.384 140.377 206.384 140.377C206.384 140.377 189.507 142.434 175.915 151.782C189.417 161.142 206.384 163.199 206.384 163.199C206.384 163.199 208.511 179.523 218.188 192.681C227.864 179.556 229.991 163.231 229.991 163.231ZM163.234 184.802L164.359 203.836L184.038 204.99L214.936 217.222L202.289 187.327L201.107 168.292L181.428 167.149L150.531 154.917L163.234 184.802ZM184.095 98.6731L164.415 99.7614L163.29 118.796L150.643 148.692L181.541 136.459L201.22 135.306L202.401 116.271L215.048 86.3862L184.095 98.6731ZM273.141 118.85L272.016 99.8159L252.337 98.7276L221.428 86.495L234.007 116.325L235.189 135.36L254.868 136.514L285.766 148.746L273.141 118.85Z" fill="url(#paint4_linear_8197_2832)"/>
<path d="M290.75 36.9009C279.555 50.3197 277.18 68.6903 277.18 68.6903C277.18 68.6903 258.244 70.9866 244.37 81.75H192.005C178.131 70.9322 159.195 68.6903 159.195 68.6903C159.195 68.6903 156.809 50.3633 145.625 36.9444V9.9218V-13.7053C156.809 -27.1133 159.195 -45.4403 159.195 -45.4403C159.195 -45.4403 178.131 -47.7367 192.005 -58.5H244.37C258.244 -47.6823 277.18 -45.4403 277.18 -45.4403C277.18 -45.4403 279.555 -27.1133 290.75 -13.7053V9.9218V36.9009ZM252.28 64.7398L271.96 63.5862L273.085 44.5517L285.766 14.6668L254.891 26.8994L235.211 28.0421L234.007 47.0766L221.361 76.9723L252.28 64.7398ZM229.991 22.9815C229.991 22.9815 246.868 20.9246 260.46 11.5651C246.958 2.21658 229.991 0.159683 229.991 0.159683C229.991 0.159683 227.864 -16.1649 218.188 -29.3225C208.511 -16.1976 206.384 0.127029 206.384 0.127029C206.384 0.127029 189.507 2.18391 175.915 11.5325C189.417 20.8919 206.384 22.9488 206.384 22.9488C206.384 22.9488 208.511 39.2734 218.188 52.431C227.864 39.306 229.991 22.9815 229.991 22.9815ZM163.234 44.5517L164.359 63.5862L184.038 64.7398L214.936 76.9723L202.289 47.0766L201.107 28.0421L181.428 26.8994L150.531 14.6668L163.234 44.5517ZM184.095 -41.5768L164.415 -40.4886L163.29 -21.4541L150.643 8.4417L181.541 -3.79088L201.22 -4.94447L202.401 -23.9789L215.048 -53.8638L184.095 -41.5768ZM273.141 -21.3997L272.016 -40.4341L252.337 -41.5224L221.428 -53.755L234.007 -23.9245L235.189 -4.89006L254.868 -3.73645L285.766 8.49611L273.141 -21.3997Z" fill="url(#paint5_linear_8197_2832)"/>
<path d="M290.75 -103.349C279.555 -89.9303 277.18 -71.5597 277.18 -71.5597C277.18 -71.5597 258.244 -69.2633 244.37 -58.5H192.005C178.131 -69.3177 159.195 -71.5597 159.195 -71.5597C159.195 -71.5597 156.809 -89.8867 145.625 -103.306V-130.328V-153.955C156.809 -167.363 159.195 -185.69 159.195 -185.69C159.195 -185.69 178.131 -187.987 192.005 -198.75H244.37C258.244 -187.932 277.18 -185.69 277.18 -185.69C277.18 -185.69 279.555 -167.363 290.75 -153.955V-130.328V-103.349ZM252.28 -75.5102L271.96 -76.6638L273.085 -95.6983L285.766 -125.583L254.891 -113.351L235.211 -112.208L234.007 -93.1734L221.361 -63.2777L252.28 -75.5102ZM229.991 -117.269C229.991 -117.269 246.868 -119.325 260.46 -128.685C246.958 -138.033 229.991 -140.09 229.991 -140.09C229.991 -140.09 227.864 -156.415 218.188 -169.573C208.511 -156.448 206.384 -140.123 206.384 -140.123C206.384 -140.123 189.507 -138.066 175.915 -128.718C189.417 -119.358 206.384 -117.301 206.384 -117.301C206.384 -117.301 208.511 -100.977 218.188 -87.819C227.864 -100.944 229.991 -117.269 229.991 -117.269ZM163.234 -95.6983L164.359 -76.6638L184.038 -75.5102L214.936 -63.2777L202.289 -93.1734L201.107 -112.208L181.428 -113.351L150.531 -125.583L163.234 -95.6983ZM184.095 -181.827L164.415 -180.739L163.29 -161.704L150.643 -131.808L181.541 -144.041L201.22 -145.194L202.401 -164.229L215.048 -194.114L184.095 -181.827ZM273.141 -161.65L272.016 -180.684L252.337 -181.772L221.428 -194.005L234.007 -164.175L235.189 -145.14L254.868 -143.986L285.766 -131.754L273.141 -161.65Z" fill="url(#paint6_linear_8197_2832)"/>
<path d="M290.75 -243.599C279.555 -230.18 277.18 -211.81 277.18 -211.81C277.18 -211.81 258.244 -209.513 244.37 -198.75H192.005C178.131 -209.568 159.195 -211.81 159.195 -211.81C159.195 -211.81 156.809 -230.137 145.625 -243.556V-270.578V-294.205C156.809 -307.613 159.195 -325.94 159.195 -325.94C159.195 -325.94 178.131 -328.237 192.005 -339H244.37C258.244 -328.182 277.18 -325.94 277.18 -325.94C277.18 -325.94 279.555 -307.613 290.75 -294.205V-270.578V-243.599ZM252.28 -215.76L271.96 -216.914L273.085 -235.948L285.766 -265.833L254.891 -253.601L235.211 -252.458L234.007 -233.423L221.361 -203.528L252.28 -215.76ZM229.991 -257.519C229.991 -257.519 246.868 -259.575 260.46 -268.935C246.958 -278.283 229.991 -280.34 229.991 -280.34C229.991 -280.34 227.864 -296.665 218.188 -309.823C208.511 -296.698 206.384 -280.373 206.384 -280.373C206.384 -280.373 189.507 -278.316 175.915 -268.968C189.417 -259.608 206.384 -257.551 206.384 -257.551C206.384 -257.551 208.511 -241.227 218.188 -228.069C227.864 -241.194 229.991 -257.519 229.991 -257.519ZM163.234 -235.948L164.359 -216.914L184.038 -215.76L214.936 -203.528L202.289 -233.423L201.107 -252.458L181.428 -253.601L150.531 -265.833L163.234 -235.948ZM184.095 -322.077L164.415 -320.989L163.29 -301.954L150.643 -272.058L181.541 -284.291L201.22 -285.444L202.401 -304.479L215.048 -334.364L184.095 -322.077ZM273.141 -301.9L272.016 -320.934L252.337 -322.022L221.428 -334.255L234.007 -304.425L235.189 -285.39L254.868 -284.236L285.766 -272.004L273.141 -301.9Z" fill="url(#paint7_linear_8197_2832)"/>
<path d="M435.875 177.151C424.68 190.57 422.305 208.94 422.305 208.94C422.305 208.94 403.369 211.237 389.495 222H337.13C323.256 211.182 304.32 208.94 304.32 208.94C304.32 208.94 301.934 190.613 290.75 177.194V150.172V126.545C301.934 113.137 304.32 94.8097 304.32 94.8097C304.32 94.8097 323.256 92.5134 337.13 81.75H389.495C403.369 92.5678 422.305 94.8097 422.305 94.8097C422.305 94.8097 424.68 113.137 435.875 126.545V150.172V177.151ZM397.405 204.99L417.085 203.836L418.21 184.802L430.891 154.917L400.016 167.149L380.336 168.292L379.132 187.327L366.486 217.222L397.405 204.99ZM375.116 163.231C375.116 163.231 391.993 161.175 405.585 151.815C392.083 142.467 375.116 140.41 375.116 140.41C375.116 140.41 372.989 124.085 363.312 110.927C353.636 124.052 351.509 140.377 351.509 140.377C351.509 140.377 334.632 142.434 321.04 151.782C334.542 161.142 351.509 163.199 351.509 163.199C351.509 163.199 353.636 179.523 363.312 192.681C372.989 179.556 375.116 163.231 375.116 163.231ZM308.359 184.802L309.484 203.836L329.163 204.99L360.061 217.222L347.414 187.327L346.232 168.292L326.553 167.149L295.656 154.917L308.359 184.802ZM329.22 98.6731L309.54 99.7614L308.415 118.796L295.768 148.692L326.666 136.459L346.345 135.306L347.526 116.271L360.173 86.3862L329.22 98.6731ZM418.266 118.85L417.141 99.8159L397.462 98.7276L366.553 86.495L379.132 116.325L380.314 135.36L399.993 136.514L430.891 148.746L418.266 118.85Z" fill="url(#paint8_linear_8197_2832)"/>
<path d="M435.875 36.9009C424.68 50.3197 422.305 68.6903 422.305 68.6903C422.305 68.6903 403.369 70.9866 389.495 81.75H337.13C323.256 70.9322 304.32 68.6903 304.32 68.6903C304.32 68.6903 301.934 50.3633 290.75 36.9444V9.9218V-13.7053C301.934 -27.1133 304.32 -45.4403 304.32 -45.4403C304.32 -45.4403 323.256 -47.7367 337.13 -58.5H389.495C403.369 -47.6823 422.305 -45.4403 422.305 -45.4403C422.305 -45.4403 424.68 -27.1133 435.875 -13.7053V9.9218V36.9009ZM397.405 64.7398L417.085 63.5862L418.21 44.5517L430.891 14.6668L400.016 26.8994L380.336 28.0421L379.132 47.0766L366.486 76.9723L397.405 64.7398ZM375.116 22.9815C375.116 22.9815 391.993 20.9246 405.585 11.5651C392.083 2.21658 375.116 0.159683 375.116 0.159683C375.116 0.159683 372.989 -16.1649 363.312 -29.3225C353.636 -16.1976 351.509 0.127029 351.509 0.127029C351.509 0.127029 334.632 2.18391 321.04 11.5325C334.542 20.8919 351.509 22.9488 351.509 22.9488C351.509 22.9488 353.636 39.2734 363.312 52.431C372.989 39.306 375.116 22.9815 375.116 22.9815ZM308.359 44.5517L309.484 63.5862L329.163 64.7398L360.061 76.9723L347.414 47.0766L346.232 28.0421L326.553 26.8994L295.656 14.6668L308.359 44.5517ZM329.22 -41.5768L309.54 -40.4886L308.415 -21.4541L295.768 8.4417L326.666 -3.79088L346.345 -4.94447L347.526 -23.9789L360.173 -53.8638L329.22 -41.5768ZM418.266 -21.3997L417.141 -40.4341L397.462 -41.5224L366.553 -53.755L379.132 -23.9245L380.314 -4.89006L399.993 -3.73645L430.891 8.49611L418.266 -21.3997Z" fill="url(#paint9_linear_8197_2832)"/>
<path d="M435.875 -103.349C424.68 -89.9303 422.305 -71.5597 422.305 -71.5597C422.305 -71.5597 403.369 -69.2633 389.495 -58.5H337.13C323.256 -69.3177 304.32 -71.5597 304.32 -71.5597C304.32 -71.5597 301.934 -89.8867 290.75 -103.306V-130.328V-153.955C301.934 -167.363 304.32 -185.69 304.32 -185.69C304.32 -185.69 323.256 -187.987 337.13 -198.75H389.495C403.369 -187.932 422.305 -185.69 422.305 -185.69C422.305 -185.69 424.68 -167.363 435.875 -153.955V-130.328V-103.349ZM397.405 -75.5102L417.085 -76.6638L418.21 -95.6983L430.891 -125.583L400.016 -113.351L380.336 -112.208L379.132 -93.1734L366.486 -63.2777L397.405 -75.5102ZM375.116 -117.269C375.116 -117.269 391.993 -119.325 405.585 -128.685C392.083 -138.033 375.116 -140.09 375.116 -140.09C375.116 -140.09 372.989 -156.415 363.312 -169.573C353.636 -156.448 351.509 -140.123 351.509 -140.123C351.509 -140.123 334.632 -138.066 321.04 -128.718C334.542 -119.358 351.509 -117.301 351.509 -117.301C351.509 -117.301 353.636 -100.977 363.312 -87.819C372.989 -100.944 375.116 -117.269 375.116 -117.269ZM308.359 -95.6983L309.484 -76.6638L329.163 -75.5102L360.061 -63.2777L347.414 -93.1734L346.232 -112.208L326.553 -113.351L295.656 -125.583L308.359 -95.6983ZM329.22 -181.827L309.54 -180.739L308.415 -161.704L295.768 -131.808L326.666 -144.041L346.345 -145.194L347.526 -164.229L360.173 -194.114L329.22 -181.827ZM418.266 -161.65L417.141 -180.684L397.462 -181.772L366.553 -194.005L379.132 -164.175L380.314 -145.14L399.993 -143.986L430.891 -131.754L418.266 -161.65Z" fill="url(#paint10_linear_8197_2832)"/>
<path d="M435.875 -243.599C424.68 -230.18 422.305 -211.81 422.305 -211.81C422.305 -211.81 403.369 -209.513 389.495 -198.75H337.13C323.256 -209.568 304.32 -211.81 304.32 -211.81C304.32 -211.81 301.934 -230.137 290.75 -243.556V-270.578V-294.205C301.934 -307.613 304.32 -325.94 304.32 -325.94C304.32 -325.94 323.256 -328.237 337.13 -339H389.495C403.369 -328.182 422.305 -325.94 422.305 -325.94C422.305 -325.94 424.68 -307.613 435.875 -294.205V-270.578V-243.599ZM397.405 -215.76L417.085 -216.914L418.21 -235.948L430.891 -265.833L400.016 -253.601L380.336 -252.458L379.132 -233.423L366.486 -203.528L397.405 -215.76ZM375.116 -257.519C375.116 -257.519 391.993 -259.575 405.585 -268.935C392.083 -278.283 375.116 -280.34 375.116 -280.34C375.116 -280.34 372.989 -296.665 363.312 -309.823C353.636 -296.698 351.509 -280.373 351.509 -280.373C351.509 -280.373 334.632 -278.316 321.04 -268.968C334.542 -259.608 351.509 -257.551 351.509 -257.551C351.509 -257.551 353.636 -241.227 363.312 -228.069C372.989 -241.194 375.116 -257.519 375.116 -257.519ZM308.359 -235.948L309.484 -216.914L329.163 -215.76L360.061 -203.528L347.414 -233.423L346.232 -252.458L326.553 -253.601L295.656 -265.833L308.359 -235.948ZM329.22 -322.077L309.54 -320.989L308.415 -301.954L295.768 -272.058L326.666 -284.291L346.345 -285.444L347.526 -304.479L360.173 -334.364L329.22 -322.077ZM418.266 -301.9L417.141 -320.934L397.462 -322.022L366.553 -334.255L379.132 -304.425L380.314 -285.39L399.993 -284.236L430.891 -272.004L418.266 -301.9Z" fill="url(#paint11_linear_8197_2832)"/>
<path d="M581 177.151C569.805 190.57 567.43 208.94 567.43 208.94C567.43 208.94 548.494 211.237 534.62 222H482.255C468.381 211.182 449.445 208.94 449.445 208.94C449.445 208.94 447.059 190.613 435.875 177.194V150.172V126.545C447.059 113.137 449.445 94.8097 449.445 94.8097C449.445 94.8097 468.381 92.5134 482.255 81.75H534.62C548.494 92.5678 567.43 94.8097 567.43 94.8097C567.43 94.8097 569.805 113.137 581 126.545V150.172V177.151ZM542.53 204.99L562.21 203.836L563.335 184.802L576.016 154.917L545.141 167.149L525.461 168.292L524.257 187.327L511.611 217.222L542.53 204.99ZM520.241 163.231C520.241 163.231 537.118 161.175 550.71 151.815C537.208 142.467 520.241 140.41 520.241 140.41C520.241 140.41 518.114 124.085 508.438 110.927C498.761 124.052 496.634 140.377 496.634 140.377C496.634 140.377 479.757 142.434 466.165 151.782C479.667 161.142 496.634 163.199 496.634 163.199C496.634 163.199 498.761 179.523 508.438 192.681C518.114 179.556 520.241 163.231 520.241 163.231ZM453.484 184.802L454.609 203.836L474.289 204.99L505.186 217.222L492.539 187.327L491.357 168.292L471.678 167.149L440.781 154.917L453.484 184.802ZM474.345 98.6731L454.665 99.7614L453.54 118.796L440.893 148.692L471.791 136.459L491.47 135.306L492.651 116.271L505.298 86.3862L474.345 98.6731ZM563.391 118.85L562.266 99.8159L542.587 98.7276L511.678 86.495L524.257 116.325L525.439 135.36L545.118 136.514L576.016 148.746L563.391 118.85Z" fill="url(#paint12_linear_8197_2832)"/>
<path d="M581 36.9009C569.805 50.3197 567.43 68.6903 567.43 68.6903C567.43 68.6903 548.494 70.9866 534.62 81.75H482.255C468.381 70.9322 449.445 68.6903 449.445 68.6903C449.445 68.6903 447.059 50.3633 435.875 36.9444V9.9218V-13.7053C447.059 -27.1133 449.445 -45.4403 449.445 -45.4403C449.445 -45.4403 468.381 -47.7367 482.255 -58.5H534.62C548.494 -47.6823 567.43 -45.4403 567.43 -45.4403C567.43 -45.4403 569.805 -27.1133 581 -13.7053V9.9218V36.9009ZM542.53 64.7398L562.21 63.5862L563.335 44.5517L576.016 14.6668L545.141 26.8994L525.461 28.0421L524.257 47.0766L511.611 76.9723L542.53 64.7398ZM520.241 22.9815C520.241 22.9815 537.118 20.9246 550.71 11.5651C537.208 2.21658 520.241 0.159683 520.241 0.159683C520.241 0.159683 518.114 -16.1649 508.438 -29.3225C498.761 -16.1976 496.634 0.127029 496.634 0.127029C496.634 0.127029 479.757 2.18391 466.165 11.5325C479.667 20.8919 496.634 22.9488 496.634 22.9488C496.634 22.9488 498.761 39.2734 508.438 52.431C518.114 39.306 520.241 22.9815 520.241 22.9815ZM453.484 44.5517L454.609 63.5862L474.289 64.7398L505.186 76.9723L492.539 47.0766L491.357 28.0421L471.678 26.8994L440.781 14.6668L453.484 44.5517ZM474.345 -41.5768L454.665 -40.4886L453.54 -21.4541L440.893 8.4417L471.791 -3.79088L491.47 -4.94447L492.651 -23.9789L505.298 -53.8638L474.345 -41.5768ZM563.391 -21.3997L562.266 -40.4341L542.587 -41.5224L511.678 -53.755L524.257 -23.9245L525.439 -4.89006L545.118 -3.73645L576.016 8.49611L563.391 -21.3997Z" fill="url(#paint13_linear_8197_2832)"/>
<path d="M581 -103.349C569.805 -89.9303 567.43 -71.5597 567.43 -71.5597C567.43 -71.5597 548.494 -69.2633 534.62 -58.5H482.255C468.381 -69.3177 449.445 -71.5597 449.445 -71.5597C449.445 -71.5597 447.059 -89.8867 435.875 -103.306V-130.328V-153.955C447.059 -167.363 449.445 -185.69 449.445 -185.69C449.445 -185.69 468.381 -187.987 482.255 -198.75H534.62C548.494 -187.932 567.43 -185.69 567.43 -185.69C567.43 -185.69 569.805 -167.363 581 -153.955V-130.328V-103.349ZM542.53 -75.5102L562.21 -76.6638L563.335 -95.6983L576.016 -125.583L545.141 -113.351L525.461 -112.208L524.257 -93.1734L511.611 -63.2777L542.53 -75.5102ZM520.241 -117.269C520.241 -117.269 537.118 -119.325 550.71 -128.685C537.208 -138.033 520.241 -140.09 520.241 -140.09C520.241 -140.09 518.114 -156.415 508.438 -169.573C498.761 -156.448 496.634 -140.123 496.634 -140.123C496.634 -140.123 479.757 -138.066 466.165 -128.718C479.667 -119.358 496.634 -117.301 496.634 -117.301C496.634 -117.301 498.761 -100.977 508.438 -87.819C518.114 -100.944 520.241 -117.269 520.241 -117.269ZM453.484 -95.6983L454.609 -76.6638L474.289 -75.5102L505.186 -63.2777L492.539 -93.1734L491.357 -112.208L471.678 -113.351L440.781 -125.583L453.484 -95.6983ZM474.345 -181.827L454.665 -180.739L453.54 -161.704L440.893 -131.808L471.791 -144.041L491.47 -145.194L492.651 -164.229L505.298 -194.114L474.345 -181.827ZM563.391 -161.65L562.266 -180.684L542.587 -181.772L511.678 -194.005L524.257 -164.175L525.439 -145.14L545.118 -143.986L576.016 -131.754L563.391 -161.65Z" fill="url(#paint14_linear_8197_2832)"/>
<path d="M581 -243.599C569.805 -230.18 567.43 -211.81 567.43 -211.81C567.43 -211.81 548.494 -209.513 534.62 -198.75H482.255C468.381 -209.568 449.445 -211.81 449.445 -211.81C449.445 -211.81 447.059 -230.137 435.875 -243.556V-270.578V-294.205C447.059 -307.613 449.445 -325.94 449.445 -325.94C449.445 -325.94 468.381 -328.237 482.255 -339H534.62C548.494 -328.182 567.43 -325.94 567.43 -325.94C567.43 -325.94 569.805 -307.613 581 -294.205V-270.578V-243.599ZM542.53 -215.76L562.21 -216.914L563.335 -235.948L576.016 -265.833L545.141 -253.601L525.461 -252.458L524.257 -233.423L511.611 -203.528L542.53 -215.76ZM520.241 -257.519C520.241 -257.519 537.118 -259.575 550.71 -268.935C537.208 -278.283 520.241 -280.34 520.241 -280.34C520.241 -280.34 518.114 -296.665 508.438 -309.823C498.761 -296.698 496.634 -280.373 496.634 -280.373C496.634 -280.373 479.757 -278.316 466.165 -268.968C479.667 -259.608 496.634 -257.551 496.634 -257.551C496.634 -257.551 498.761 -241.227 508.438 -228.069C518.114 -241.194 520.241 -257.519 520.241 -257.519ZM453.484 -235.948L454.609 -216.914L474.289 -215.76L505.186 -203.528L492.539 -233.423L491.357 -252.458L471.678 -253.601L440.781 -265.833L453.484 -235.948ZM474.345 -322.077L454.665 -320.989L453.54 -301.954L440.893 -272.058L471.791 -284.291L491.47 -285.444L492.651 -304.479L505.298 -334.364L474.345 -322.077ZM563.391 -301.9L562.266 -320.934L542.587 -322.022L511.678 -334.255L524.257 -304.425L525.439 -285.39L545.118 -284.236L576.016 -272.004L563.391 -301.9Z" fill="url(#paint15_linear_8197_2832)"/>
<path d="M726.125 177.151C714.93 190.57 712.555 208.94 712.555 208.94C712.555 208.94 693.619 211.237 679.745 222H627.38C613.506 211.182 594.57 208.94 594.57 208.94C594.57 208.94 592.184 190.613 581 177.194V150.172V126.545C592.184 113.137 594.57 94.8097 594.57 94.8097C594.57 94.8097 613.506 92.5134 627.38 81.75H679.745C693.619 92.5678 712.555 94.8097 712.555 94.8097C712.555 94.8097 714.93 113.137 726.125 126.545V150.172V177.151ZM687.655 204.99L707.335 203.836L708.46 184.802L721.14 154.917L690.266 167.149L670.586 168.292L669.382 187.327L656.736 217.222L687.655 204.99ZM665.366 163.231C665.366 163.231 682.243 161.175 695.835 151.815C682.333 142.467 665.366 140.41 665.366 140.41C665.366 140.41 663.239 124.085 653.562 110.927C643.886 124.052 641.759 140.377 641.759 140.377C641.759 140.377 624.882 142.434 611.29 151.782C624.792 161.142 641.759 163.199 641.759 163.199C641.759 163.199 643.886 179.523 653.562 192.681C663.239 179.556 665.366 163.231 665.366 163.231ZM598.609 184.802L599.734 203.836L619.414 204.99L650.311 217.222L637.664 187.327L636.482 168.292L616.803 167.149L585.906 154.917L598.609 184.802ZM619.47 98.6731L599.79 99.7614L598.665 118.796L586.018 148.692L616.916 136.459L636.595 135.306L637.776 116.271L650.423 86.3862L619.47 98.6731ZM708.516 118.85L707.391 99.8159L687.712 98.7276L656.803 86.495L669.382 116.325L670.564 135.36L690.243 136.514L721.14 148.746L708.516 118.85Z" fill="url(#paint16_linear_8197_2832)"/>
<path d="M726.125 36.9009C714.93 50.3197 712.555 68.6903 712.555 68.6903C712.555 68.6903 693.619 70.9866 679.745 81.75H627.38C613.506 70.9322 594.57 68.6903 594.57 68.6903C594.57 68.6903 592.184 50.3633 581 36.9444V9.9218V-13.7053C592.184 -27.1133 594.57 -45.4403 594.57 -45.4403C594.57 -45.4403 613.506 -47.7367 627.38 -58.5H679.745C693.619 -47.6823 712.555 -45.4403 712.555 -45.4403C712.555 -45.4403 714.93 -27.1133 726.125 -13.7053V9.9218V36.9009ZM687.655 64.7398L707.335 63.5862L708.46 44.5517L721.14 14.6668L690.266 26.8994L670.586 28.0421L669.382 47.0766L656.736 76.9723L687.655 64.7398ZM665.366 22.9815C665.366 22.9815 682.243 20.9246 695.835 11.5651C682.333 2.21658 665.366 0.159683 665.366 0.159683C665.366 0.159683 663.239 -16.1649 653.562 -29.3225C643.886 -16.1976 641.759 0.127029 641.759 0.127029C641.759 0.127029 624.882 2.18391 611.29 11.5325C624.792 20.8919 641.759 22.9488 641.759 22.9488C641.759 22.9488 643.886 39.2734 653.562 52.431C663.239 39.306 665.366 22.9815 665.366 22.9815ZM598.609 44.5517L599.734 63.5862L619.414 64.7398L650.311 76.9723L637.664 47.0766L636.482 28.0421L616.803 26.8994L585.906 14.6668L598.609 44.5517ZM619.47 -41.5768L599.79 -40.4886L598.665 -21.4541L586.018 8.4417L616.916 -3.79088L636.595 -4.94447L637.776 -23.9789L650.423 -53.8638L619.47 -41.5768ZM708.516 -21.3997L707.391 -40.4341L687.712 -41.5224L656.803 -53.755L669.382 -23.9245L670.564 -4.89006L690.243 -3.73645L721.14 8.49611L708.516 -21.3997Z" fill="url(#paint17_linear_8197_2832)"/>
<path d="M726.125 -103.349C714.93 -89.9303 712.555 -71.5597 712.555 -71.5597C712.555 -71.5597 693.619 -69.2633 679.745 -58.5H627.38C613.506 -69.3177 594.57 -71.5597 594.57 -71.5597C594.57 -71.5597 592.184 -89.8867 581 -103.306V-130.328V-153.955C592.184 -167.363 594.57 -185.69 594.57 -185.69C594.57 -185.69 613.506 -187.987 627.38 -198.75H679.745C693.619 -187.932 712.555 -185.69 712.555 -185.69C712.555 -185.69 714.93 -167.363 726.125 -153.955V-130.328V-103.349ZM687.655 -75.5102L707.335 -76.6638L708.46 -95.6983L721.14 -125.583L690.266 -113.351L670.586 -112.208L669.382 -93.1734L656.736 -63.2777L687.655 -75.5102ZM665.366 -117.269C665.366 -117.269 682.243 -119.325 695.835 -128.685C682.333 -138.033 665.366 -140.09 665.366 -140.09C665.366 -140.09 663.239 -156.415 653.562 -169.573C643.886 -156.448 641.759 -140.123 641.759 -140.123C641.759 -140.123 624.882 -138.066 611.29 -128.718C624.792 -119.358 641.759 -117.301 641.759 -117.301C641.759 -117.301 643.886 -100.977 653.562 -87.819C663.239 -100.944 665.366 -117.269 665.366 -117.269ZM598.609 -95.6983L599.734 -76.6638L619.414 -75.5102L650.311 -63.2777L637.664 -93.1734L636.482 -112.208L616.803 -113.351L585.906 -125.583L598.609 -95.6983ZM619.47 -181.827L599.79 -180.739L598.665 -161.704L586.018 -131.808L616.916 -144.041L636.595 -145.194L637.776 -164.229L650.423 -194.114L619.47 -181.827ZM708.516 -161.65L707.391 -180.684L687.712 -181.772L656.803 -194.005L669.382 -164.175L670.564 -145.14L690.243 -143.986L721.14 -131.754L708.516 -161.65Z" fill="url(#paint18_linear_8197_2832)"/>
<path d="M726.125 -243.599C714.93 -230.18 712.555 -211.81 712.555 -211.81C712.555 -211.81 693.619 -209.513 679.745 -198.75H627.38C613.506 -209.568 594.57 -211.81 594.57 -211.81C594.57 -211.81 592.184 -230.137 581 -243.556V-270.578V-294.205C592.184 -307.613 594.57 -325.94 594.57 -325.94C594.57 -325.94 613.506 -328.237 627.38 -339H679.745C693.619 -328.182 712.555 -325.94 712.555 -325.94C712.555 -325.94 714.93 -307.613 726.125 -294.205V-270.578V-243.599ZM687.655 -215.76L707.335 -216.914L708.46 -235.948L721.14 -265.833L690.266 -253.601L670.586 -252.458L669.382 -233.423L656.736 -203.528L687.655 -215.76ZM665.366 -257.519C665.366 -257.519 682.243 -259.575 695.835 -268.935C682.333 -278.283 665.366 -280.34 665.366 -280.34C665.366 -280.34 663.239 -296.665 653.562 -309.823C643.886 -296.698 641.759 -280.373 641.759 -280.373C641.759 -280.373 624.882 -278.316 611.29 -268.968C624.792 -259.608 641.759 -257.551 641.759 -257.551C641.759 -257.551 643.886 -241.227 653.562 -228.069C663.239 -241.194 665.366 -257.519 665.366 -257.519ZM598.609 -235.948L599.734 -216.914L619.414 -215.76L650.311 -203.528L637.664 -233.423L636.482 -252.458L616.803 -253.601L585.906 -265.833L598.609 -235.948ZM619.47 -322.077L599.79 -320.989L598.665 -301.954L586.018 -272.058L616.916 -284.291L636.595 -285.444L637.776 -304.479L650.423 -334.364L619.47 -322.077ZM708.516 -301.9L707.391 -320.934L687.712 -322.022L656.803 -334.255L669.382 -304.425L670.564 -285.39L690.243 -284.236L721.14 -272.004L708.516 -301.9Z" fill="url(#paint19_linear_8197_2832)"/>
<path d="M871.25 177.151C860.055 190.57 857.68 208.94 857.68 208.94C857.68 208.94 838.744 211.237 824.87 222H772.505C758.631 211.182 739.695 208.94 739.695 208.94C739.695 208.94 737.309 190.613 726.125 177.194V150.172V126.545C737.309 113.137 739.695 94.8097 739.695 94.8097C739.695 94.8097 758.631 92.5134 772.505 81.75H824.87C838.744 92.5678 857.68 94.8097 857.68 94.8097C857.68 94.8097 860.055 113.137 871.25 126.545V150.172V177.151ZM832.78 204.99L852.46 203.836L853.585 184.802L866.266 154.917L835.391 167.149L815.711 168.292L814.508 187.327L801.861 217.222L832.78 204.99ZM810.491 163.231C810.491 163.231 827.368 161.175 840.96 151.815C827.458 142.467 810.491 140.41 810.491 140.41C810.491 140.41 808.364 124.085 798.688 110.927C789.011 124.052 786.884 140.377 786.884 140.377C786.884 140.377 770.007 142.434 756.415 151.782C769.917 161.142 786.884 163.199 786.884 163.199C786.884 163.199 789.011 179.523 798.688 192.681C808.364 179.556 810.491 163.231 810.491 163.231ZM743.734 184.802L744.859 203.836L764.539 204.99L795.436 217.222L782.789 187.327L781.607 168.292L761.928 167.149L731.031 154.917L743.734 184.802ZM764.595 98.6731L744.915 99.7614L743.79 118.796L731.143 148.692L762.041 136.459L781.72 135.306L782.901 116.271L795.548 86.3862L764.595 98.6731ZM853.641 118.85L852.516 99.8159L832.837 98.7276L801.928 86.495L814.508 116.325L815.689 135.36L835.368 136.514L866.266 148.746L853.641 118.85Z" fill="url(#paint20_linear_8197_2832)"/>
<path d="M871.25 36.9009C860.055 50.3197 857.68 68.6903 857.68 68.6903C857.68 68.6903 838.744 70.9866 824.87 81.75H772.505C758.631 70.9322 739.695 68.6903 739.695 68.6903C739.695 68.6903 737.309 50.3633 726.125 36.9444V9.9218V-13.7053C737.309 -27.1133 739.695 -45.4403 739.695 -45.4403C739.695 -45.4403 758.631 -47.7367 772.505 -58.5H824.87C838.744 -47.6823 857.68 -45.4403 857.68 -45.4403C857.68 -45.4403 860.055 -27.1133 871.25 -13.7053V9.9218V36.9009ZM832.78 64.7398L852.46 63.5862L853.585 44.5517L866.266 14.6668L835.391 26.8994L815.711 28.0421L814.508 47.0766L801.861 76.9723L832.78 64.7398ZM810.491 22.9815C810.491 22.9815 827.368 20.9246 840.96 11.5651C827.458 2.21658 810.491 0.159683 810.491 0.159683C810.491 0.159683 808.364 -16.1649 798.688 -29.3225C789.011 -16.1976 786.884 0.127029 786.884 0.127029C786.884 0.127029 770.007 2.18391 756.415 11.5325C769.917 20.8919 786.884 22.9488 786.884 22.9488C786.884 22.9488 789.011 39.2734 798.688 52.431C808.364 39.306 810.491 22.9815 810.491 22.9815ZM743.734 44.5517L744.859 63.5862L764.539 64.7398L795.436 76.9723L782.789 47.0766L781.607 28.0421L761.928 26.8994L731.031 14.6668L743.734 44.5517ZM764.595 -41.5768L744.915 -40.4886L743.79 -21.4541L731.143 8.4417L762.041 -3.79088L781.72 -4.94447L782.901 -23.9789L795.548 -53.8638L764.595 -41.5768ZM853.641 -21.3997L852.516 -40.4341L832.837 -41.5224L801.928 -53.755L814.508 -23.9245L815.689 -4.89006L835.368 -3.73645L866.266 8.49611L853.641 -21.3997Z" fill="url(#paint21_linear_8197_2832)"/>
<path d="M871.25 -103.349C860.055 -89.9303 857.68 -71.5597 857.68 -71.5597C857.68 -71.5597 838.744 -69.2633 824.87 -58.5H772.505C758.631 -69.3177 739.695 -71.5597 739.695 -71.5597C739.695 -71.5597 737.309 -89.8867 726.125 -103.306V-130.328V-153.955C737.309 -167.363 739.695 -185.69 739.695 -185.69C739.695 -185.69 758.631 -187.987 772.505 -198.75H824.87C838.744 -187.932 857.68 -185.69 857.68 -185.69C857.68 -185.69 860.055 -167.363 871.25 -153.955V-130.328V-103.349ZM832.78 -75.5102L852.46 -76.6638L853.585 -95.6983L866.266 -125.583L835.391 -113.351L815.711 -112.208L814.508 -93.1734L801.861 -63.2777L832.78 -75.5102ZM810.491 -117.269C810.491 -117.269 827.368 -119.325 840.96 -128.685C827.458 -138.033 810.491 -140.09 810.491 -140.09C810.491 -140.09 808.364 -156.415 798.688 -169.573C789.011 -156.448 786.884 -140.123 786.884 -140.123C786.884 -140.123 770.007 -138.066 756.415 -128.718C769.917 -119.358 786.884 -117.301 786.884 -117.301C786.884 -117.301 789.011 -100.977 798.688 -87.819C808.364 -100.944 810.491 -117.269 810.491 -117.269ZM743.734 -95.6983L744.859 -76.6638L764.539 -75.5102L795.436 -63.2777L782.789 -93.1734L781.607 -112.208L761.928 -113.351L731.031 -125.583L743.734 -95.6983ZM764.595 -181.827L744.915 -180.739L743.79 -161.704L731.143 -131.808L762.041 -144.041L781.72 -145.194L782.901 -164.229L795.548 -194.114L764.595 -181.827ZM853.641 -161.65L852.516 -180.684L832.837 -181.772L801.928 -194.005L814.508 -164.175L815.689 -145.14L835.368 -143.986L866.266 -131.754L853.641 -161.65Z" fill="url(#paint22_linear_8197_2832)"/>
<path d="M871.25 -243.599C860.055 -230.18 857.68 -211.81 857.68 -211.81C857.68 -211.81 838.744 -209.513 824.87 -198.75H772.505C758.631 -209.568 739.695 -211.81 739.695 -211.81C739.695 -211.81 737.309 -230.137 726.125 -243.556V-270.578V-294.205C737.309 -307.613 739.695 -325.94 739.695 -325.94C739.695 -325.94 758.631 -328.237 772.505 -339H824.87C838.744 -328.182 857.68 -325.94 857.68 -325.94C857.68 -325.94 860.055 -307.613 871.25 -294.205V-270.578V-243.599ZM832.78 -215.76L852.46 -216.914L853.585 -235.948L866.266 -265.833L835.391 -253.601L815.711 -252.458L814.508 -233.423L801.861 -203.528L832.78 -215.76ZM810.491 -257.519C810.491 -257.519 827.368 -259.575 840.96 -268.935C827.458 -278.283 810.491 -280.34 810.491 -280.34C810.491 -280.34 808.364 -296.665 798.688 -309.823C789.011 -296.698 786.884 -280.373 786.884 -280.373C786.884 -280.373 770.007 -278.316 756.415 -268.968C769.917 -259.608 786.884 -257.551 786.884 -257.551C786.884 -257.551 789.011 -241.227 798.688 -228.069C808.364 -241.194 810.491 -257.519 810.491 -257.519ZM743.734 -235.948L744.859 -216.914L764.539 -215.76L795.436 -203.528L782.789 -233.423L781.607 -252.458L761.928 -253.601L731.031 -265.833L743.734 -235.948ZM764.595 -322.077L744.915 -320.989L743.79 -301.954L731.143 -272.058L762.041 -284.291L781.72 -285.444L782.901 -304.479L795.548 -334.364L764.595 -322.077ZM853.641 -301.9L852.516 -320.934L832.837 -322.022L801.928 -334.255L814.508 -304.425L815.689 -285.39L835.368 -284.236L866.266 -272.004L853.641 -301.9Z" fill="url(#paint23_linear_8197_2832)"/>
<path d="M1016.38 177.151C1005.18 190.57 1002.81 208.94 1002.81 208.94C1002.81 208.94 983.869 211.237 969.995 222H917.63C903.756 211.182 884.82 208.94 884.82 208.94C884.82 208.94 882.434 190.613 871.25 177.194V150.172V126.545C882.434 113.137 884.82 94.8097 884.82 94.8097C884.82 94.8097 903.756 92.5134 917.63 81.75H969.995C983.869 92.5678 1002.81 94.8097 1002.81 94.8097C1002.81 94.8097 1005.18 113.137 1016.38 126.545V150.172V177.151ZM977.905 204.99L997.585 203.836L998.71 184.802L1011.39 154.917L980.516 167.149L960.836 168.292L959.633 187.327L946.986 217.222L977.905 204.99ZM955.616 163.231C955.616 163.231 972.493 161.175 986.085 151.815C972.583 142.467 955.616 140.41 955.616 140.41C955.616 140.41 953.489 124.085 943.812 110.927C934.136 124.052 932.01 140.377 932.01 140.377C932.01 140.377 915.132 142.434 901.54 151.782C915.042 161.142 932.01 163.199 932.01 163.199C932.01 163.199 934.136 179.523 943.812 192.681C953.489 179.556 955.616 163.231 955.616 163.231ZM888.859 184.802L889.984 203.836L909.664 204.99L940.561 217.222L927.914 187.327L926.732 168.292L907.053 167.149L876.156 154.917L888.859 184.802ZM909.72 98.6731L890.04 99.7614L888.915 118.796L876.268 148.692L907.166 136.459L926.845 135.306L928.026 116.271L940.673 86.3862L909.72 98.6731ZM998.766 118.85L997.641 99.8159L977.962 98.7276L947.053 86.495L959.633 116.325L960.814 135.36L980.493 136.514L1011.39 148.746L998.766 118.85Z" fill="url(#paint24_linear_8197_2832)"/>
<path d="M1016.38 36.9009C1005.18 50.3197 1002.81 68.6903 1002.81 68.6903C1002.81 68.6903 983.869 70.9866 969.995 81.75H917.63C903.756 70.9322 884.82 68.6903 884.82 68.6903C884.82 68.6903 882.434 50.3633 871.25 36.9444V9.9218V-13.7053C882.434 -27.1133 884.82 -45.4403 884.82 -45.4403C884.82 -45.4403 903.756 -47.7367 917.63 -58.5H969.995C983.869 -47.6823 1002.81 -45.4403 1002.81 -45.4403C1002.81 -45.4403 1005.18 -27.1133 1016.38 -13.7053V9.9218V36.9009ZM977.905 64.7398L997.585 63.5862L998.71 44.5517L1011.39 14.6668L980.516 26.8994L960.836 28.0421L959.633 47.0766L946.986 76.9723L977.905 64.7398ZM955.616 22.9815C955.616 22.9815 972.493 20.9246 986.085 11.5651C972.583 2.21658 955.616 0.159683 955.616 0.159683C955.616 0.159683 953.489 -16.1649 943.812 -29.3225C934.136 -16.1976 932.01 0.127029 932.01 0.127029C932.01 0.127029 915.132 2.18391 901.54 11.5325C915.042 20.8919 932.01 22.9488 932.01 22.9488C932.01 22.9488 934.136 39.2734 943.812 52.431C953.489 39.306 955.616 22.9815 955.616 22.9815ZM888.859 44.5517L889.984 63.5862L909.664 64.7398L940.561 76.9723L927.914 47.0766L926.732 28.0421L907.053 26.8994L876.156 14.6668L888.859 44.5517ZM909.72 -41.5768L890.04 -40.4886L888.915 -21.4541L876.268 8.4417L907.166 -3.79088L926.845 -4.94447L928.026 -23.9789L940.673 -53.8638L909.72 -41.5768ZM998.766 -21.3997L997.641 -40.4341L977.962 -41.5224L947.053 -53.755L959.633 -23.9245L960.814 -4.89006L980.493 -3.73645L1011.39 8.49611L998.766 -21.3997Z" fill="url(#paint25_linear_8197_2832)"/>
<path d="M1016.38 -103.349C1005.18 -89.9303 1002.81 -71.5597 1002.81 -71.5597C1002.81 -71.5597 983.869 -69.2633 969.995 -58.5H917.63C903.756 -69.3177 884.82 -71.5597 884.82 -71.5597C884.82 -71.5597 882.434 -89.8867 871.25 -103.306V-130.328V-153.955C882.434 -167.363 884.82 -185.69 884.82 -185.69C884.82 -185.69 903.756 -187.987 917.63 -198.75H969.995C983.869 -187.932 1002.81 -185.69 1002.81 -185.69C1002.81 -185.69 1005.18 -167.363 1016.38 -153.955V-130.328V-103.349ZM977.905 -75.5102L997.585 -76.6638L998.71 -95.6983L1011.39 -125.583L980.516 -113.351L960.836 -112.208L959.633 -93.1734L946.986 -63.2777L977.905 -75.5102ZM955.616 -117.269C955.616 -117.269 972.493 -119.325 986.085 -128.685C972.583 -138.033 955.616 -140.09 955.616 -140.09C955.616 -140.09 953.489 -156.415 943.812 -169.573C934.136 -156.448 932.01 -140.123 932.01 -140.123C932.01 -140.123 915.132 -138.066 901.54 -128.718C915.042 -119.358 932.01 -117.301 932.01 -117.301C932.01 -117.301 934.136 -100.977 943.812 -87.819C953.489 -100.944 955.616 -117.269 955.616 -117.269ZM888.859 -95.6983L889.984 -76.6638L909.664 -75.5102L940.561 -63.2777L927.914 -93.1734L926.732 -112.208L907.053 -113.351L876.156 -125.583L888.859 -95.6983ZM909.72 -181.827L890.04 -180.739L888.915 -161.704L876.268 -131.808L907.166 -144.041L926.845 -145.194L928.026 -164.229L940.673 -194.114L909.72 -181.827ZM998.766 -161.65L997.641 -180.684L977.962 -181.772L947.053 -194.005L959.633 -164.175L960.814 -145.14L980.493 -143.986L1011.39 -131.754L998.766 -161.65Z" fill="url(#paint26_linear_8197_2832)"/>
<path d="M1016.38 -243.599C1005.18 -230.18 1002.81 -211.81 1002.81 -211.81C1002.81 -211.81 983.869 -209.513 969.995 -198.75H917.63C903.756 -209.568 884.82 -211.81 884.82 -211.81C884.82 -211.81 882.434 -230.137 871.25 -243.556V-270.578V-294.205C882.434 -307.613 884.82 -325.94 884.82 -325.94C884.82 -325.94 903.756 -328.237 917.63 -339H969.995C983.869 -328.182 1002.81 -325.94 1002.81 -325.94C1002.81 -325.94 1005.18 -307.613 1016.38 -294.205V-270.578V-243.599ZM977.905 -215.76L997.585 -216.914L998.71 -235.948L1011.39 -265.833L980.516 -253.601L960.836 -252.458L959.633 -233.423L946.986 -203.528L977.905 -215.76ZM955.616 -257.519C955.616 -257.519 972.493 -259.575 986.085 -268.935C972.583 -278.283 955.616 -280.34 955.616 -280.34C955.616 -280.34 953.489 -296.665 943.812 -309.823C934.136 -296.698 932.01 -280.373 932.01 -280.373C932.01 -280.373 915.132 -278.316 901.54 -268.968C915.042 -259.608 932.01 -257.551 932.01 -257.551C932.01 -257.551 934.136 -241.227 943.812 -228.069C953.489 -241.194 955.616 -257.519 955.616 -257.519ZM888.859 -235.948L889.984 -216.914L909.664 -215.76L940.561 -203.528L927.914 -233.423L926.732 -252.458L907.053 -253.601L876.156 -265.833L888.859 -235.948ZM909.72 -322.077L890.04 -320.989L888.915 -301.954L876.268 -272.058L907.166 -284.291L926.845 -285.444L928.026 -304.479L940.673 -334.364L909.72 -322.077ZM998.766 -301.9L997.641 -320.934L977.962 -322.022L947.053 -334.255L959.633 -304.425L960.814 -285.39L980.493 -284.236L1011.39 -272.004L998.766 -301.9Z" fill="url(#paint27_linear_8197_2832)"/>
<path d="M1161.5 177.151C1150.3 190.57 1147.93 208.94 1147.93 208.94C1147.93 208.94 1128.99 211.237 1115.12 222H1062.75C1048.88 211.182 1029.94 208.94 1029.94 208.94C1029.94 208.94 1027.56 190.613 1016.38 177.194V150.172V126.545C1027.56 113.137 1029.94 94.8097 1029.94 94.8097C1029.94 94.8097 1048.88 92.5134 1062.75 81.75H1115.12C1128.99 92.5678 1147.93 94.8097 1147.93 94.8097C1147.93 94.8097 1150.3 113.137 1161.5 126.545V177.151ZM1123.03 204.99L1142.71 203.836L1143.83 184.802L1156.52 154.917L1125.64 167.149L1105.96 168.292L1104.76 187.327L1092.11 217.222L1123.03 204.99ZM1100.74 163.231C1100.74 163.231 1117.62 161.175 1131.21 151.815C1117.71 142.467 1100.74 140.41 1100.74 140.41C1100.74 140.41 1098.61 124.085 1088.94 110.927C1079.26 124.052 1077.13 140.377 1077.13 140.377C1077.13 140.377 1060.26 142.434 1046.66 151.782C1060.17 161.142 1077.13 163.199 1077.13 163.199C1077.13 163.199 1079.26 179.523 1088.94 192.681C1098.61 179.556 1100.74 163.231 1100.74 163.231ZM1033.98 184.802L1035.11 203.836L1054.79 204.99L1085.69 217.222L1073.04 187.327L1071.86 168.292L1052.18 167.149L1021.28 154.917L1033.98 184.802ZM1054.84 98.6731L1035.17 99.7614L1034.04 118.796L1021.39 148.692L1052.29 136.459L1071.97 135.306L1073.15 116.271L1085.8 86.3862L1054.84 98.6731ZM1143.89 118.85L1142.77 99.8159L1123.09 98.7276L1092.18 86.495L1104.76 116.325L1105.94 135.36L1125.62 136.514L1156.52 148.746L1143.89 118.85Z" fill="url(#paint28_linear_8197_2832)"/>
<path d="M1161.5 36.9009C1150.3 50.3197 1147.93 68.6903 1147.93 68.6903C1147.93 68.6903 1128.99 70.9866 1115.12 81.75H1062.75C1048.88 70.9322 1029.94 68.6903 1029.94 68.6903C1029.94 68.6903 1027.56 50.3633 1016.38 36.9444V9.9218V-13.7053C1027.56 -27.1133 1029.94 -45.4403 1029.94 -45.4403C1029.94 -45.4403 1048.88 -47.7367 1062.75 -58.5H1115.12C1128.99 -47.6823 1147.93 -45.4403 1147.93 -45.4403C1147.93 -45.4403 1150.3 -27.1133 1161.5 -13.7053V36.9009ZM1123.03 64.7398L1142.71 63.5862L1143.83 44.5517L1156.52 14.6668L1125.64 26.8994L1105.96 28.0421L1104.76 47.0766L1092.11 76.9723L1123.03 64.7398ZM1100.74 22.9815C1100.74 22.9815 1117.62 20.9246 1131.21 11.5651C1117.71 2.21658 1100.74 0.159683 1100.74 0.159683C1100.74 0.159683 1098.61 -16.1649 1088.94 -29.3225C1079.26 -16.1976 1077.13 0.127029 1077.13 0.127029C1077.13 0.127029 1060.26 2.18391 1046.66 11.5325C1060.17 20.8919 1077.13 22.9488 1077.13 22.9488C1077.13 22.9488 1079.26 39.2734 1088.94 52.431C1098.61 39.306 1100.74 22.9815 1100.74 22.9815ZM1033.98 44.5517L1035.11 63.5862L1054.79 64.7398L1085.69 76.9723L1073.04 47.0766L1071.86 28.0421L1052.18 26.8994L1021.28 14.6668L1033.98 44.5517ZM1054.84 -41.5768L1035.17 -40.4886L1034.04 -21.4541L1021.39 8.4417L1052.29 -3.79088L1071.97 -4.94447L1073.15 -23.9789L1085.8 -53.8638L1054.84 -41.5768ZM1143.89 -21.3997L1142.77 -40.4341L1123.09 -41.5224L1092.18 -53.755L1104.76 -23.9245L1105.94 -4.89006L1125.62 -3.73645L1156.52 8.49611L1143.89 -21.3997Z" fill="url(#paint29_linear_8197_2832)"/>
<path d="M1161.5 -103.349C1150.3 -89.9303 1147.93 -71.5597 1147.93 -71.5597C1147.93 -71.5597 1128.99 -69.2633 1115.12 -58.5H1062.75C1048.88 -69.3177 1029.94 -71.5597 1029.94 -71.5597C1029.94 -71.5597 1027.56 -89.8867 1016.38 -103.306V-130.328V-153.955C1027.56 -167.363 1029.94 -185.69 1029.94 -185.69C1029.94 -185.69 1048.88 -187.987 1062.75 -198.75H1115.12C1128.99 -187.932 1147.93 -185.69 1147.93 -185.69C1147.93 -185.69 1150.3 -167.363 1161.5 -153.955V-103.349ZM1123.03 -75.5102L1142.71 -76.6638L1143.83 -95.6983L1156.52 -125.583L1125.64 -113.351L1105.96 -112.208L1104.76 -93.1734L1092.11 -63.2777L1123.03 -75.5102ZM1100.74 -117.269C1100.74 -117.269 1117.62 -119.325 1131.21 -128.685C1117.71 -138.033 1100.74 -140.09 1100.74 -140.09C1100.74 -140.09 1098.61 -156.415 1088.94 -169.573C1079.26 -156.448 1077.13 -140.123 1077.13 -140.123C1077.13 -140.123 1060.26 -138.066 1046.66 -128.718C1060.17 -119.358 1077.13 -117.301 1077.13 -117.301C1077.13 -117.301 1079.26 -100.977 1088.94 -87.819C1098.61 -100.944 1100.74 -117.269 1100.74 -117.269ZM1033.98 -95.6983L1035.11 -76.6638L1054.79 -75.5102L1085.69 -63.2777L1073.04 -93.1734L1071.86 -112.208L1052.18 -113.351L1021.28 -125.583L1033.98 -95.6983ZM1054.84 -181.827L1035.17 -180.739L1034.04 -161.704L1021.39 -131.808L1052.29 -144.041L1071.97 -145.194L1073.15 -164.229L1085.8 -194.114L1054.84 -181.827ZM1143.89 -161.65L1142.77 -180.684L1123.09 -181.772L1092.18 -194.005L1104.76 -164.175L1105.94 -145.14L1125.62 -143.986L1156.52 -131.754L1143.89 -161.65Z" fill="url(#paint30_linear_8197_2832)"/>
<path d="M1161.5 -243.599C1150.3 -230.18 1147.93 -211.81 1147.93 -211.81C1147.93 -211.81 1128.99 -209.513 1115.12 -198.75H1062.75C1048.88 -209.568 1029.94 -211.81 1029.94 -211.81C1029.94 -211.81 1027.56 -230.137 1016.38 -243.556V-270.578V-294.205C1027.56 -307.613 1029.94 -325.94 1029.94 -325.94C1029.94 -325.94 1048.88 -328.237 1062.75 -339H1115.12C1128.99 -328.182 1147.93 -325.94 1147.93 -325.94C1147.93 -325.94 1150.3 -307.613 1161.5 -294.205V-243.599ZM1123.03 -215.76L1142.71 -216.914L1143.83 -235.948L1156.52 -265.833L1125.64 -253.601L1105.96 -252.458L1104.76 -233.423L1092.11 -203.528L1123.03 -215.76ZM1100.74 -257.519C1100.74 -257.519 1117.62 -259.575 1131.21 -268.935C1117.71 -278.283 1100.74 -280.34 1100.74 -280.34C1100.74 -280.34 1098.61 -296.665 1088.94 -309.823C1079.26 -296.698 1077.13 -280.373 1077.13 -280.373C1077.13 -280.373 1060.26 -278.316 1046.66 -268.968C1060.17 -259.608 1077.13 -257.551 1077.13 -257.551C1077.13 -257.551 1079.26 -241.227 1088.94 -228.069C1098.61 -241.194 1100.74 -257.519 1100.74 -257.519ZM1033.98 -235.948L1035.11 -216.914L1054.79 -215.76L1085.69 -203.528L1073.04 -233.423L1071.86 -252.458L1052.18 -253.601L1021.28 -265.833L1033.98 -235.948ZM1054.84 -322.077L1035.17 -320.989L1034.04 -301.954L1021.39 -272.058L1052.29 -284.291L1071.97 -285.444L1073.15 -304.479L1085.8 -334.364L1054.84 -322.077ZM1143.89 -301.9L1142.77 -320.934L1123.09 -322.022L1092.18 -334.255L1104.76 -304.425L1105.94 -285.39L1125.62 -284.236L1156.52 -272.004L1143.89 -301.9Z" fill="url(#paint31_linear_8197_2832)"/>
<defs>
<linearGradient id="paint0_linear_8197_2832" x1="771.523" y1="221.998" x2="917.139" y2="-123.362" gradientUnits="userSpaceOnUse">
<stop stop-color="white" stop-opacity="0"/>
<stop offset="1" stop-color="white" stop-opacity="0.1"/>
</linearGradient>
<linearGradient id="paint1_linear_8197_2832" x1="771.523" y1="221.998" x2="917.139" y2="-123.362" gradientUnits="userSpaceOnUse">
<stop stop-color="white" stop-opacity="0"/>
<stop offset="1" stop-color="white" stop-opacity="0.1"/>
</linearGradient>
<linearGradient id="paint2_linear_8197_2832" x1="771.523" y1="221.998" x2="917.139" y2="-123.362" gradientUnits="userSpaceOnUse">
<stop stop-color="white" stop-opacity="0"/>
<stop offset="1" stop-color="white" stop-opacity="0.1"/>
</linearGradient>
<linearGradient id="paint3_linear_8197_2832" x1="771.523" y1="221.998" x2="917.139" y2="-123.362" gradientUnits="userSpaceOnUse">
<stop stop-color="white" stop-opacity="0"/>
<stop offset="1" stop-color="white" stop-opacity="0.1"/>
</linearGradient>
<linearGradient id="paint4_linear_8197_2832" x1="771.523" y1="221.998" x2="917.139" y2="-123.362" gradientUnits="userSpaceOnUse">
<stop stop-color="white" stop-opacity="0"/>
<stop offset="1" stop-color="white" stop-opacity="0.1"/>
</linearGradient>
<linearGradient id="paint5_linear_8197_2832" x1="771.523" y1="221.998" x2="917.139" y2="-123.362" gradientUnits="userSpaceOnUse">
<stop stop-color="white" stop-opacity="0"/>
<stop offset="1" stop-color="white" stop-opacity="0.1"/>
</linearGradient>
<linearGradient id="paint6_linear_8197_2832" x1="771.523" y1="221.998" x2="917.139" y2="-123.362" gradientUnits="userSpaceOnUse">
<stop stop-color="white" stop-opacity="0"/>
<stop offset="1" stop-color="white" stop-opacity="0.1"/>
</linearGradient>
<linearGradient id="paint7_linear_8197_2832" x1="771.523" y1="221.998" x2="917.139" y2="-123.362" gradientUnits="userSpaceOnUse">
<stop stop-color="white" stop-opacity="0"/>
<stop offset="1" stop-color="white" stop-opacity="0.1"/>
</linearGradient>
<linearGradient id="paint8_linear_8197_2832" x1="771.523" y1="221.998" x2="917.139" y2="-123.362" gradientUnits="userSpaceOnUse">
<stop stop-color="white" stop-opacity="0"/>
<stop offset="1" stop-color="white" stop-opacity="0.1"/>
</linearGradient>
<linearGradient id="paint9_linear_8197_2832" x1="771.523" y1="221.998" x2="917.139" y2="-123.362" gradientUnits="userSpaceOnUse">
<stop stop-color="white" stop-opacity="0"/>
<stop offset="1" stop-color="white" stop-opacity="0.1"/>
</linearGradient>
<linearGradient id="paint10_linear_8197_2832" x1="771.523" y1="221.998" x2="917.139" y2="-123.362" gradientUnits="userSpaceOnUse">
<stop stop-color="white" stop-opacity="0"/>
<stop offset="1" stop-color="white" stop-opacity="0.1"/>
</linearGradient>
<linearGradient id="paint11_linear_8197_2832" x1="771.523" y1="221.998" x2="917.139" y2="-123.362" gradientUnits="userSpaceOnUse">
<stop stop-color="white" stop-opacity="0"/>
<stop offset="1" stop-color="white" stop-opacity="0.1"/>
</linearGradient>
<linearGradient id="paint12_linear_8197_2832" x1="771.523" y1="221.998" x2="917.139" y2="-123.362" gradientUnits="userSpaceOnUse">
<stop stop-color="white" stop-opacity="0"/>
<stop offset="1" stop-color="white" stop-opacity="0.1"/>
</linearGradient>
<linearGradient id="paint13_linear_8197_2832" x1="771.523" y1="221.998" x2="917.139" y2="-123.362" gradientUnits="userSpaceOnUse">
<stop stop-color="white" stop-opacity="0"/>
<stop offset="1" stop-color="white" stop-opacity="0.1"/>
</linearGradient>
<linearGradient id="paint14_linear_8197_2832" x1="771.523" y1="221.998" x2="917.139" y2="-123.362" gradientUnits="userSpaceOnUse">
<stop stop-color="white" stop-opacity="0"/>
<stop offset="1" stop-color="white" stop-opacity="0.1"/>
</linearGradient>
<linearGradient id="paint15_linear_8197_2832" x1="771.523" y1="221.998" x2="917.139" y2="-123.362" gradientUnits="userSpaceOnUse">
<stop stop-color="white" stop-opacity="0"/>
<stop offset="1" stop-color="white" stop-opacity="0.1"/>
</linearGradient>
<linearGradient id="paint16_linear_8197_2832" x1="771.523" y1="221.998" x2="917.139" y2="-123.362" gradientUnits="userSpaceOnUse">
<stop stop-color="white" stop-opacity="0"/>
<stop offset="1" stop-color="white" stop-opacity="0.1"/>
</linearGradient>
<linearGradient id="paint17_linear_8197_2832" x1="771.523" y1="221.998" x2="917.139" y2="-123.362" gradientUnits="userSpaceOnUse">
<stop stop-color="white" stop-opacity="0"/>
<stop offset="1" stop-color="white" stop-opacity="0.1"/>
</linearGradient>
<linearGradient id="paint18_linear_8197_2832" x1="771.523" y1="221.998" x2="917.139" y2="-123.362" gradientUnits="userSpaceOnUse">
<stop stop-color="white" stop-opacity="0"/>
<stop offset="1" stop-color="white" stop-opacity="0.1"/>
</linearGradient>
<linearGradient id="paint19_linear_8197_2832" x1="771.523" y1="221.998" x2="917.139" y2="-123.362" gradientUnits="userSpaceOnUse">
<stop stop-color="white" stop-opacity="0"/>
<stop offset="1" stop-color="white" stop-opacity="0.1"/>
</linearGradient>
<linearGradient id="paint20_linear_8197_2832" x1="771.523" y1="221.998" x2="917.139" y2="-123.362" gradientUnits="userSpaceOnUse">
<stop stop-color="white" stop-opacity="0"/>
<stop offset="1" stop-color="white" stop-opacity="0.1"/>
</linearGradient>
<linearGradient id="paint21_linear_8197_2832" x1="771.523" y1="221.998" x2="917.139" y2="-123.362" gradientUnits="userSpaceOnUse">
<stop stop-color="white" stop-opacity="0"/>
<stop offset="1" stop-color="white" stop-opacity="0.1"/>
</linearGradient>
<linearGradient id="paint22_linear_8197_2832" x1="771.523" y1="221.998" x2="917.139" y2="-123.362" gradientUnits="userSpaceOnUse">
<stop stop-color="white" stop-opacity="0"/>
<stop offset="1" stop-color="white" stop-opacity="0.1"/>
</linearGradient>
<linearGradient id="paint23_linear_8197_2832" x1="771.523" y1="221.998" x2="917.139" y2="-123.362" gradientUnits="userSpaceOnUse">
<stop stop-color="white" stop-opacity="0"/>
<stop offset="1" stop-color="white" stop-opacity="0.1"/>
</linearGradient>
<linearGradient id="paint24_linear_8197_2832" x1="771.523" y1="221.998" x2="917.139" y2="-123.362" gradientUnits="userSpaceOnUse">
<stop stop-color="white" stop-opacity="0"/>
<stop offset="1" stop-color="white" stop-opacity="0.1"/>
</linearGradient>
<linearGradient id="paint25_linear_8197_2832" x1="771.523" y1="221.998" x2="917.139" y2="-123.362" gradientUnits="userSpaceOnUse">
<stop stop-color="white" stop-opacity="0"/>
<stop offset="1" stop-color="white" stop-opacity="0.1"/>
</linearGradient>
<linearGradient id="paint26_linear_8197_2832" x1="771.523" y1="221.998" x2="917.139" y2="-123.362" gradientUnits="userSpaceOnUse">
<stop stop-color="white" stop-opacity="0"/>
<stop offset="1" stop-color="white" stop-opacity="0.1"/>
</linearGradient>
<linearGradient id="paint27_linear_8197_2832" x1="771.523" y1="221.998" x2="917.139" y2="-123.362" gradientUnits="userSpaceOnUse">
<stop stop-color="white" stop-opacity="0"/>
<stop offset="1" stop-color="white" stop-opacity="0.1"/>
</linearGradient>
<linearGradient id="paint28_linear_8197_2832" x1="771.523" y1="221.998" x2="917.139" y2="-123.362" gradientUnits="userSpaceOnUse">
<stop stop-color="white" stop-opacity="0"/>
<stop offset="1" stop-color="white" stop-opacity="0.1"/>
</linearGradient>
<linearGradient id="paint29_linear_8197_2832" x1="771.523" y1="221.998" x2="917.139" y2="-123.362" gradientUnits="userSpaceOnUse">
<stop stop-color="white" stop-opacity="0"/>
<stop offset="1" stop-color="white" stop-opacity="0.1"/>
</linearGradient>
<linearGradient id="paint30_linear_8197_2832" x1="771.523" y1="221.998" x2="917.139" y2="-123.362" gradientUnits="userSpaceOnUse">
<stop stop-color="white" stop-opacity="0"/>
<stop offset="1" stop-color="white" stop-opacity="0.1"/>
</linearGradient>
<linearGradient id="paint31_linear_8197_2832" x1="771.523" y1="221.998" x2="917.139" y2="-123.362" gradientUnits="userSpaceOnUse">
<stop stop-color="white" stop-opacity="0"/>
<stop offset="1" stop-color="white" stop-opacity="0.1"/>
</linearGradient>
</defs>
</svg>
